# xmcd
#
# Track frame offsets: 
#        150
#        21890
#        51780
#        72802
#        98847
#        119647
#        140670
#        167555
#        184202
#        211265
#        234422
#        267097
#        295205
#
# Disc length: 4183 seconds
#
# Revision: 6
# Processed by: cddbd v1.5.2PL0 Copyright (c) Steve Scherf et al.
# Submitted via: ExactAudioCopyFreeDBPlugin 1.0
#
DISCID=be10550d
DTITLE=Bebel Gilberto - Tanto Tempo Remixes
DYEAR=2001
DGENRE=Electronic
TTITLE0=Bananeira [Rae and Christian Remix]
TTITLE1=Sem Contenção [Trüby Trio Remix]
TTITLE2=August Day Song [Chateau Flight Remix]
TTITLE3=Tanto Tempo [Peter Kruder's Cidade Maravilhosa Remix]
TTITLE4=Mais Feliz [Monoaural Remix]
TTITLE5=So Nice (Summer Samba) [Mario Caldato Jr. Remix]
TTITLE6=Alguém [Ananda Project's Night In The Sahara Remix]
TTITLE7=Sem Contenção [Sin Plomo Remix]
TTITLE8=Close Your Eyes [Faze Action Remix]
TTITLE9=August Day Song [Da Lata Remix]
TTITLE10=Tanto Tempo [Chari Chari Remix]
TTITLE11=Samba Da Benção [4hero Remix]
TTITLE12=August Day Song [King Britt Remix]
EXTD=
EXTT0=
EXTT1=
EXTT2=
EXTT3=
EXTT4=
EXTT5=
EXTT6=
EXTT7=
EXTT8=
EXTT9=
EXTT10=
EXTT11=
EXTT12=
PLAYORDER=
